# xmcd
#
# Track frame offsets: 
#        150
#        15446
#        38266
#        58487
#        80812
#        106492
#        124555
#        141150
#        158384
#        178856
#        198362
#        217238
#        234681
#        249157
#        259420
#        275200
#        295086
#
# Disc length: 4208 seconds
#
# Revision: 0
# Processed by: cddbd v1.5.2PL0 Copyright (c) Steve Scherf et al.
# Submitted via: ExactAudioCopy v0.99pb5
#
DISCID=fb106e11
DTITLE=Various Artist - Love Story 
DYEAR=2008
DGENRE=
TTITLE0=01 Ready for the times to get better - Crystal Gayle
TTITLE1=02 Bressanone - Matten Lien
TTITLE2=03 Un-break my heart - Toni Braxion
TTITLE3=04 Everytime I close my eyes - Babyface
TTITLE4=05 Do you want to - Xscape
TTITLE5=06 Nothing's gonna change my love for you - Geore Benson
TTITLE6=07 What will I do - Cagnet
TTITLE7=08 Miss you finally - Trademark
TTITLE8=09 The one you love - Glenn Frey
TTITLE9=10 Smooth operator/ Sade
TTITLE10=11 Just one last dance - Sarah Connor Feat.Natual
TTITLE11=12 Eternal flame - Bangles
TTITLE12=13 Longer - Dan Fogelberg
TTITLE13=14 So much in love /T imothy B.Schmidt
TTITLE14=15 Without you - Mariah Carey
TTITLE15=16 I will always love you - Whitney Houston
TTITLE16=17 Casablanca - Bertie Higgins
EXTD=
EXTT0=
EXTT1=
EXTT2=
EXTT3=
EXTT4=
EXTT5=
EXTT6=
EXTT7=
EXTT8=
EXTT9=
EXTT10=
EXTT11=
EXTT12=
EXTT13=
EXTT14=
EXTT15=
EXTT16=
PLAYORDER=
